<svg width="68" height="68" viewBox="0 0 68 68" fill="none" xmlns="http://www.w3.org/2000/svg">
<path d="M49.7083 38.35L25.5416 51.6417L37.625 58.1667L49.7083 51.6417V38.35Z" fill="#C067D1"/>
<path d="M54.5416 56.9583H11.0416L6.20831 61.7917H59.375L54.5416 56.9583Z" fill="#C067D1"/>
<path d="M18.3405 53.1255L14.9229 49.7079L11.5052 53.1255L14.9229 56.5432L18.3405 53.1255Z" fill="#C067D1"/>
<path d="M30.375 41.25L37.625 37.625L44.875 41.25V48.5L37.625 52.125L30.375 48.5V41.25Z" stroke="#703EBB" stroke-width="3" stroke-miterlimit="10" stroke-linejoin="round"/>
<path d="M13.4583 32.0667V27.9583" stroke="#703EBB" stroke-width="3" stroke-miterlimit="10" stroke-linecap="round" stroke-linejoin="round"/>
<path d="M49.7083 51.6417L37.625 58.1667L25.5416 51.6417V38.35L37.625 31.5833L49.7083 38.35V51.6417Z" stroke="#703EBB" stroke-width="3" stroke-miterlimit="10" stroke-linejoin="round"/>
<path d="M18.3405 53.1255L14.9229 49.7079L11.5052 53.1255L14.9229 56.5432L18.3405 53.1255Z" stroke="#703EBB" stroke-width="3" stroke-miterlimit="10" stroke-linecap="round" stroke-linejoin="round"/>
<path d="M46.0833 30.375L42.4583 25.5417H32.7916L29.1666 30.375L6.20831 32.7917V61.7917H59.375V32.7917L46.0833 30.375Z" stroke="#703EBB" stroke-width="3" stroke-miterlimit="10" stroke-linecap="round" stroke-linejoin="round"/>
<path d="M48.5 13.4583L42.4583 8.625H32.7917L26.75 13.4583" stroke="#703EBB" stroke-width="3" stroke-miterlimit="10" stroke-linecap="round" stroke-linejoin="round"/>
<path d="M44.875 17.0833L40.2833 13.4583H34.9667L30.375 17.0833" stroke="#703EBB" stroke-width="3" stroke-miterlimit="10" stroke-linecap="round" stroke-linejoin="round"/>
<path d="M41.25 20.7083L38.35 18.2917H37.1417L34 20.7083" stroke="#703EBB" stroke-width="3" stroke-miterlimit="10" stroke-linecap="round" stroke-linejoin="round"/>
</svg>
