<svg width="68" height="68" viewBox="0 0 68 68" fill="none" xmlns="http://www.w3.org/2000/svg">
<path d="M46.6546 32.6818L45.6 22.4L35.3182 21.3454L24.2455 32.6818L24.5091 43.4909L18.9728 37.9545L9.74548 39.8L18.9728 49.0273L28.2 58.2545L30.0455 49.0273L24.5091 43.4909L35.3182 43.7545L46.6546 32.6818Z" fill="white"/>
<path d="M43.4909 35.5818L35.5818 43.4909L47.9728 63L63 47.9727L43.4909 35.5818Z" fill="#C167D1"/>
<path d="M32.4182 24.5091L20.0273 5L5 20.0273L24.5091 32.4182L32.4182 24.5091Z" fill="#C167D1"/>
<path d="M18.9727 49.0273L28.2 58.2546L30.0454 49.0273L24.5091 43.4909L18.9727 49.0273Z" fill="#C167D1"/>
<path d="M45.6 22.4L46.6545 32.6818L35.3182 43.7546L24.5091 43.4909L45.6 22.4Z" fill="#C167D1"/>
<path d="M39.5364 39.5364L55.6182 55.6182" stroke="#703EBB" stroke-width="3" stroke-miterlimit="10" stroke-linecap="round" stroke-linejoin="round"/>
<path d="M56.1454 43.7545L43.7545 56.1455" stroke="#703EBB" stroke-width="3" stroke-miterlimit="10" stroke-linecap="round" stroke-linejoin="round"/>
<path d="M49.2909 39.2727L39.5364 49.2909" stroke="#703EBB" stroke-width="3" stroke-miterlimit="10" stroke-linecap="round" stroke-linejoin="round"/>
<path d="M28.4637 28.4636L12.3818 12.3818" stroke="#703EBB" stroke-width="3" stroke-miterlimit="10" stroke-linecap="round" stroke-linejoin="round"/>
<path d="M24.2455 11.8546L11.8546 24.2455" stroke="#703EBB" stroke-width="3" stroke-miterlimit="10" stroke-linecap="round" stroke-linejoin="round"/>
<path d="M28.7273 18.7091L18.7091 28.4636" stroke="#703EBB" stroke-width="3" stroke-miterlimit="10" stroke-linecap="round" stroke-linejoin="round"/>
<path d="M35.3182 43.7545L24.5091 43.4909L24.2455 32.6818L35.3182 21.3454L45.6 22.4L46.6546 32.6818L35.3182 43.7545Z" stroke="#703EBB" stroke-width="3" stroke-miterlimit="10" stroke-linecap="round" stroke-linejoin="round"/>
<path d="M33.4727 23.1909L44.8091 34.5272" stroke="#703EBB" stroke-width="3" stroke-miterlimit="10" stroke-linecap="round" stroke-linejoin="round"/>
<path d="M30.0455 49.0273L18.9728 37.9545L9.74548 39.8L18.9728 49.0273L28.2 58.2545L30.0455 49.0273Z" stroke="#703EBB" stroke-width="3" stroke-miterlimit="10" stroke-linecap="round" stroke-linejoin="round"/>
<path d="M11.5909 56.4091L18.9728 49.0273" stroke="#703EBB" stroke-width="3" stroke-miterlimit="10" stroke-linecap="round" stroke-linejoin="round"/>
<path d="M43.4909 35.5818L35.5818 43.4909L47.9728 63L63 47.9727L43.4909 35.5818Z" stroke="#703EBB" stroke-width="3" stroke-miterlimit="10" stroke-linecap="round" stroke-linejoin="round"/>
<path d="M32.4182 24.5091L20.0273 5L5 20.0273L24.5091 32.4182L32.4182 24.5091Z" stroke="#703EBB" stroke-width="3" stroke-miterlimit="10" stroke-linecap="round" stroke-linejoin="round"/>
</svg>
